<?xml version="1.0" standalone="no"?>
<!DOCTYPE svg PUBLIC "-//W3C//DTD SVG 20010904//EN"
 "http://www.w3.org/TR/2001/REC-SVG-20010904/DTD/svg10.dtd">
<svg version="1.0" xmlns="http://www.w3.org/2000/svg"
 width="256.000000pt" height="256.000000pt" viewBox="0 0 256.000000 256.000000"
 preserveAspectRatio="xMidYMid meet">

<g transform="translate(0.000000,256.000000) scale(0.100000,-0.100000)"
fill="#000000" stroke="none">
<path d="M1109 2036 c-91 -35 -170 -97 -215 -167 -33 -52 -56 -142 -52 -200 1
-27 -1 -49 -6 -49 -6 0 -69 18 -142 40 -73 22 -139 40 -147 40 -26 0 -44 -35
-67 -130 -14 -59 -51 -158 -97 -260 -81 -178 -125 -318 -169 -531 -27 -132
-28 -137 -10 -163 61 -93 319 -186 597 -216 225 -23 902 1 1084 39 135 28 253
62 263 74 21 26 77 264 112 472 41 250 44 623 4 683 -20 31 -48 27 -167 -23
-98 -41 -190 -55 -371 -55 l-108 0 6 25 c10 39 -12 155 -41 215 -37 75 -109
144 -191 183 -57 27 -80 32 -157 34 -59 2 -103 -2 -126 -11z m208 -101 c161
-48 242 -221 183 -395 -12 -36 -44 -107 -71 -159 -50 -97 -157 -261 -168 -260
-13 1 -96 108 -171 221 -121 183 -163 301 -140 398 37 154 205 243 367 195z
m-561 -401 l131 -38 17 -43 c27 -65 163 -264 255 -375 104 -125 110 -126 187
-22 73 99 182 281 220 366 l29 67 155 1 c85 0 184 5 220 10 35 5 65 8 66 7 6
-5 -100 -205 -119 -226 -12 -12 -51 -38 -87 -56 -36 -18 -78 -46 -93 -62 -35
-38 -46 -94 -23 -127 17 -26 21 -93 9 -156 -5 -29 -20 -47 -84 -98 -44 -34
-99 -71 -124 -82 -81 -35 -120 -97 -80 -130 23 -19 48 -4 41 25 -6 22 0 28 61
59 38 19 91 54 119 78 27 23 66 55 84 69 l34 26 4 104 c3 87 1 107 -12 118
-42 35 1 93 99 136 75 33 109 76 181 222 54 109 70 133 96 144 42 17 48 4 48
-122 l0 -105 -36 -17 c-46 -23 -44 -53 4 -50 31 1 33 -1 30 -30 -3 -31 -5 -33
-105 -62 -114 -33 -136 -47 -113 -69 13 -12 28 -10 110 14 52 16 96 27 98 25
2 -1 -1 -18 -5 -36 -7 -26 -16 -35 -42 -41 -26 -7 -32 -13 -29 -31 2 -17 9
-22 31 -20 26 2 28 -1 23 -25 -3 -15 -8 -44 -12 -64 -3 -21 -7 -38 -8 -38 0 0
-32 9 -70 20 -51 14 -73 17 -83 9 -29 -24 -13 -36 88 -64 53 -15 55 -17 51
-45 -2 -17 -6 -30 -8 -30 -2 0 -47 16 -100 37 -68 26 -98 33 -106 25 -21 -21
2 -41 97 -77 93 -36 96 -39 90 -64 -23 -94 -25 -99 -57 -110 -31 -11 -34 -9
-83 39 -28 27 -58 50 -68 50 -28 0 -20 -34 18 -70 19 -19 35 -37 35 -41 0 -3
-19 -9 -42 -13 -40 -7 -43 -5 -83 40 -25 29 -46 45 -53 40 -18 -11 -15 -35 8
-64 12 -15 17 -29 12 -34 -5 -5 -133 -16 -283 -23 -349 -18 -409 -19 -413 -2
-22 77 -36 106 -72 146 -23 26 -60 55 -82 65 -37 17 -42 17 -63 2 -27 -19 -60
-21 -76 -5 -6 6 -26 14 -44 18 -40 8 -74 50 -66 83 5 19 49 91 81 133 13 17
-21 157 -47 197 -31 45 -73 71 -161 99 -42 13 -76 27 -76 30 0 3 17 44 39 90
21 46 44 111 51 144 7 33 14 64 17 68 6 10 -2 12 169 -39z m-252 -330 l47 -16
-20 -22 c-45 -47 -10 -72 43 -31 25 19 41 25 57 20 20 -7 17 -10 -25 -37 -28
-18 -46 -38 -46 -49 0 -27 33 -24 78 6 21 15 40 21 45 16 5 -5 15 -35 23 -68
12 -54 12 -59 -6 -77 -17 -18 -24 -19 -70 -8 -77 18 -92 16 -88 -10 2 -17 14
-25 51 -34 27 -7 50 -14 53 -16 2 -2 -2 -20 -8 -40 -6 -20 -8 -48 -4 -62 10
-39 64 -96 92 -96 14 0 36 -7 49 -16 24 -16 50 -15 115 1 16 4 32 0 45 -9 20
-15 19 -16 -12 -41 -33 -26 -43 -58 -22 -70 6 -4 29 7 51 25 32 26 42 30 49
19 15 -24 33 -89 26 -96 -8 -7 -298 14 -322 23 -12 5 -10 12 11 37 22 27 24
32 10 45 -13 13 -20 10 -63 -25 -44 -36 -51 -39 -82 -31 l-34 9 27 28 c58 60
16 84 -45 25 -36 -35 -38 -36 -75 -24 l-38 13 29 22 c18 15 26 29 22 39 -9 22
-26 20 -70 -10 l-37 -25 -32 22 c-29 21 -30 24 -14 33 57 34 81 53 81 66 0 21
-32 24 -61 5 l-25 -16 7 38 c7 40 27 63 54 63 9 0 25 6 35 14 28 21 4 47 -36
39 -16 -3 -29 -3 -29 0 0 28 105 337 114 337 2 0 24 -7 50 -16z"/>
<path d="M1155 1796 c-102 -45 -110 -170 -16 -233 80 -54 183 -12 226 91 22
52 13 98 -26 130 -26 22 -40 26 -92 26 -34 -1 -75 -7 -92 -14z m155 -56 c23
-23 19 -58 -12 -103 -24 -33 -48 -47 -85 -47 -59 0 -107 66 -84 116 23 51 142
73 181 34z"/>
<path d="M774 1299 c-8 -14 21 -43 35 -35 19 12 13 46 -8 46 -11 0 -23 -5 -27
-11z"/>
<path d="M1464 1125 c-4 -9 -2 -21 4 -27 15 -15 44 -1 40 19 -4 23 -36 29 -44
8z"/>
<path d="M1617 986 c-7 -17 18 -40 33 -31 5 3 10 15 10 26 0 23 -35 27 -43 5z"/>
<path d="M1359 928 l-77 -49 -81 40 c-90 46 -111 50 -111 22 0 -13 21 -31 66
-56 l66 -37 -58 -33 c-40 -21 -60 -39 -62 -53 -5 -33 21 -28 106 19 l75 41 74
-22 c52 -15 78 -19 85 -12 19 19 0 40 -49 54 l-48 14 45 28 c63 40 89 66 83
82 -9 23 -34 15 -114 -38z"/>
</g>
</svg>
